<?xml version="1.0" encoding="UTF-8"?>
<!DOCTYPE svg PUBLIC "-//W3C//DTD SVG 1.1//EN" "http://www.w3.org/Graphics/SVG/1.1/DTD/svg11.dtd">
<svg xmlns="http://www.w3.org/2000/svg" version="1.1" width="512px" height="512px" style="shape-rendering:geometricPrecision; text-rendering:geometricPrecision; image-rendering:optimizeQuality; fill-rule:evenodd; clip-rule:evenodd" xmlns:xlink="http://www.w3.org/1999/xlink">
<g><path style="opacity:0.997" fill="#41a5ee" d="M 232.5,-0.5 C 247.833,-0.5 263.167,-0.5 278.5,-0.5C 376.441,11.636 446.941,61.9693 490,150.5C 501.263,176.892 508.43,204.225 511.5,232.5C 511.5,247.833 511.5,263.167 511.5,278.5C 499.363,376.442 449.03,446.942 360.5,490C 334.11,501.263 306.776,508.429 278.5,511.5C 263.167,511.5 247.833,511.5 232.5,511.5C 134.558,499.363 64.058,449.03 21,360.5C 9.73692,334.108 2.57026,306.775 -0.5,278.5C -0.5,263.167 -0.5,247.833 -0.5,232.5C 11.636,134.559 61.9693,64.0588 150.5,21C 176.892,9.73692 204.225,2.57026 232.5,-0.5 Z"/></g>
<g><path style="opacity:1" fill="#fefefe" d="M 171.5,105.5 C 214.835,105.333 258.168,105.5 301.5,106C 302.931,106.465 304.097,107.299 305,108.5C 305.333,127.833 305.667,147.167 306,166.5C 306.774,168.939 308.274,170.773 310.5,172C 329.833,172.333 349.167,172.667 368.5,173C 369.931,173.465 371.097,174.299 372,175.5C 372.667,240.167 372.667,304.833 372,369.5C 368.839,389.994 357.006,401.827 336.5,405C 281.5,405.667 226.5,405.667 171.5,405C 152.649,400.483 141.816,388.65 139,369.5C 138.333,292.167 138.333,214.833 139,137.5C 143.892,120.665 154.725,109.999 171.5,105.5 Z"/></g>
<g><path style="opacity:1" fill="#fcfdfe" d="M 311.5,105.5 C 312.552,105.351 313.552,105.517 314.5,106C 333.667,125.167 352.833,144.333 372,163.5C 372.711,165.367 372.211,166.867 370.5,168C 350.833,168.667 331.167,168.667 311.5,168C 311,167.5 310.5,167 310,166.5C 309.333,146.833 309.333,127.167 310,107.5C 310.717,106.956 311.217,106.289 311.5,105.5 Z"/></g>
<g><path style="opacity:1" fill="#47a7ee" d="M 177.5,236.5 C 197.836,236.333 218.169,236.5 238.5,237C 245.148,239.47 246.981,243.97 244,250.5C 242.681,252.487 240.848,253.654 238.5,254C 218.167,254.667 197.833,254.667 177.5,254C 172.335,250.279 171.168,245.446 174,239.5C 175.518,238.837 176.685,237.837 177.5,236.5 Z"/></g>
<g><path style="opacity:1" fill="#46a6ee" d="M 178.5,271.5 C 222.835,271.333 267.168,271.5 311.5,272C 318.181,274.528 320.014,279.028 317,285.5C 315.786,287.049 314.286,288.215 312.5,289C 267.5,289.667 222.5,289.667 177.5,289C 172.845,286.103 171.345,281.937 173,276.5C 174.73,274.598 176.563,272.931 178.5,271.5 Z"/></g>
<g><path style="opacity:1" fill="#41a5ee" d="M 176.5,307.5 C 222.168,307.333 267.835,307.5 313.5,308C 318.535,311.013 319.702,315.18 317,320.5C 315.786,322.049 314.286,323.215 312.5,324C 267.5,324.667 222.5,324.667 177.5,324C 172.845,321.103 171.345,316.937 173,311.5C 174.376,310.295 175.542,308.962 176.5,307.5 Z"/></g>
</svg>
