<?xml version="1.0" encoding="UTF-8"?>
<!DOCTYPE svg PUBLIC "-//W3C//DTD SVG 1.1//EN" "http://www.w3.org/Graphics/SVG/1.1/DTD/svg11.dtd">
<svg xmlns="http://www.w3.org/2000/svg" version="1.1" width="512px" height="512px" style="shape-rendering:geometricPrecision; text-rendering:geometricPrecision; image-rendering:optimizeQuality; fill-rule:evenodd; clip-rule:evenodd" xmlns:xlink="http://www.w3.org/1999/xlink">
<g><path style="opacity:0.99" fill="#000000" d="M 232.5,-0.5 C 247.833,-0.5 263.167,-0.5 278.5,-0.5C 368.144,10.3879 435.644,54.7213 481,132.5C 497.695,163.971 507.861,197.304 511.5,232.5C 511.5,247.833 511.5,263.167 511.5,278.5C 500.612,368.144 456.279,435.644 378.5,481C 347.029,497.695 313.696,507.861 278.5,511.5C 263.167,511.5 247.833,511.5 232.5,511.5C 142.856,500.612 75.3562,456.279 30,378.5C 13.3053,347.029 3.1386,313.696 -0.5,278.5C -0.5,263.167 -0.5,247.833 -0.5,232.5C 10.3875,142.857 54.7208,75.3573 132.5,30C 163.971,13.3053 197.304,3.1386 232.5,-0.5 Z M 179.5,105.5 C 220.561,105.017 261.561,105.517 302.5,107C 303,107.5 303.5,108 304,108.5C 304.048,128.551 304.715,148.551 306,168.5C 307.543,170.378 309.376,171.878 311.5,173C 330.833,173.333 350.167,173.667 369.5,174C 370,174.5 370.5,175 371,175.5C 372.659,239.418 372.993,303.418 372,367.5C 368.47,390.695 354.97,403.195 331.5,405C 280.833,405.667 230.167,405.667 179.5,405C 156.49,403.321 142.99,391.155 139,368.5C 138.333,293.167 138.333,217.833 139,142.5C 143.16,119.836 156.66,107.503 179.5,105.5 Z M 311.5,106.5 C 312.552,106.351 313.552,106.517 314.5,107C 334.392,125.558 353.725,144.892 372.5,165C 372.043,165.414 371.709,165.914 371.5,166.5C 351.508,167.666 331.508,167.833 311.5,167C 310.172,146.833 310.172,126.667 311.5,106.5 Z"/></g>
<g><path style="opacity:0.955" fill="#000000" d="M 176.5,236.5 C 197.836,236.333 219.169,236.5 240.5,237C 245.155,239.897 246.655,244.063 245,249.5C 244.167,251.667 242.667,253.167 240.5,254C 219.167,254.667 197.833,254.667 176.5,254C 169.888,248.169 169.888,242.336 176.5,236.5 Z"/></g>
<g><path style="opacity:0.965" fill="#000000" d="M 177.5,271.5 C 222.835,271.333 268.168,271.5 313.5,272C 317.235,273.8 318.902,276.8 318.5,281C 318.961,284.545 317.628,287.212 314.5,289C 268.5,289.667 222.5,289.667 176.5,289C 169.62,282.772 169.954,276.939 177.5,271.5 Z"/></g>
<g><path style="opacity:0.921" fill="#000000" d="M 177.5,306.5 C 222.501,306.333 267.501,306.5 312.5,307C 316.972,308.262 318.972,311.262 318.5,316C 318.336,321.167 315.669,324.167 310.5,325C 266.833,325.667 223.167,325.667 179.5,325C 172.139,322.604 169.972,317.771 173,310.5C 174.397,308.93 175.897,307.596 177.5,306.5 Z"/></g>
</svg>
